<svg id="_x33_0" enable-background="new 0 0 59 60" height="512" viewBox="0 0 59 60" width="512" xmlns="http://www.w3.org/2000/svg"><g><path d="m21.783 33.803-.049-.098c-.882.19-1.796.295-2.734.295s-1.852-.105-2.734-.295l-.049.098 2.783 2.783z"/><path d="m10.485 38h7.101l-2.971-2.971c-1.826.142-3.411 1.267-4.13 2.971z"/><path d="m19 32c4.882 0 9.026-3.199 10.459-7.609-1.212 1.004-2.766 1.609-4.459 1.609-2.548 0-4.775-1.373-6-3.413-1.225 2.04-3.452 3.413-6 3.413-1.693 0-3.247-.605-4.459-1.609 1.433 4.41 5.577 7.609 10.459 7.609zm-3-4h2.171c1.557 0 3.021-.606 4.122-1.707l1.414 1.414c-1.478 1.479-3.444 2.293-5.536 2.293h-2.171z"/><path d="m23.385 35.029-2.971 2.971h7.101c-.719-1.704-2.304-2.829-4.13-2.971z"/><path d="m36 19c0 1.654-1.346 3-3 3h-1.051c-.385 5.027-3.634 9.257-8.12 11.06 2.493.297 4.634 1.905 5.585 4.283l.263.657h2.323v-9c0-1.654 1.346-3 3-3h11v-9c0-.551-.449-1-1-1h-11v.184c1.161.414 2 1.514 2 2.816z"/><path d="m30 13c0-1.654-1.346-3-3-3h-10.395c-1.512 0-2.962-.438-4.192-1.232l-2.595 1.112c-1.104.474-1.818 1.556-1.818 2.758v1.473c1.272-1.3 3.042-2.11 5-2.11 2.548 0 4.775 1.373 6 3.413 1.225-2.041 3.452-3.414 6-3.414 1.958 0 3.728.81 5 2.11z"/><path d="m32 20h1c.551 0 1-.449 1-1s-.449-1-1-1h-1z"/><path d="m13 24c2.757 0 5-2.243 5-5s-2.243-5-5-5-5 2.243-5 5 2.243 5 5 5zm0-7c1.105 0 2 .895 2 2s-.895 2-2 2-2-.895-2-2 .895-2 2-2z"/><path d="m20 19c0 2.757 2.243 5 5 5s5-2.243 5-5-2.243-5-5-5-5 2.243-5 5zm7 0c0 1.105-.895 2-2 2s-2-.895-2-2 .895-2 2-2 2 .895 2 2z"/><path d="m8.586 37.342c.95-2.377 3.091-3.986 5.584-4.282-4.486-1.803-7.734-6.033-8.119-11.06h-1.051c-1.654 0-3-1.346-3-3 0-1.302.839-2.402 2-2.816v-.184h-3c-.551 0-1 .449-1 1v21h8.323z"/><path d="m9.03 8.042 1.71-.733c-.205-.238-.396-.49-.572-.754l1.664-1.109c1.066 1.599 2.851 2.554 4.773 2.554h10.395c2.757 0 5 2.243 5 5v-2c0-6.065-4.935-11-11-11h-4c-6.065 0-11 4.935-11 11v1.638c0-2.003 1.189-3.807 3.03-4.596z"/><path d="m43.787 44.272-.568-2.272h-8.219c-1.302 0-2.402-.839-2.816-2h-32.184v9c0 .551.449 1 1 1h44c.551 0 1-.449 1-1v-3c-1.048 0-1.958-.71-2.213-1.728zm-20.787 2.728c-1.105 0-2-.895-2-2s.895-2 2-2 2 .895 2 2-.895 2-2 2z"/><path d="m57 40c.551 0 1-.449 1-1v-10c0-.551-.449-1-1-1h-22c-.551 0-1 .449-1 1v10c0 .551.449 1 1 1h9.781l.947 3.787c.063.251.482.251.545 0l.946-3.787zm-14.365-5c-.144.18-.315.34-.529.447l-2.764 1.382c-.225.113-.473.171-.724.171-.894 0-1.618-.724-1.618-1.618v-2.764c0-.894.724-1.618 1.618-1.618.251 0 .499.058.724.171l2.764 1.382c.214.107.385.267.529.447h4.365v-1c0-.552.448-1 1-1h2c.552 0 1 .448 1 1v1h5v2h-5v1c0 .552-.448 1-1 1h-2c-.552 0-1-.448-1-1v-1z"/><path d="m20 52h7v2h-7z"/><path d="m6 56h34.001v2h-34.001z"/><path d="m5 20h1v-2h-1c-.551 0-1 .449-1 1s.449 1 1 1z"/><path d="m53 50c-3.309 0-6 2.691-6 6v1c0 1.654 1.346 3 3 3h6c1.654 0 3-1.346 3-3v-1c0-3.309-2.691-6-6-6z"/></g></svg>